PathFileType	4	(X/Y/Z)	Run_300 01
DataRate	CameraRate	NumFrames	NumMarkers	Units	OrigDataRate	OrigDataStartFrame	OrigNumFrames
120	120	7	42	mm	120	92	128
Frame#	Time	LASI			RASI			LPSI			RPSI			RTH1			RTH3			LTH1			LTH2			LTH3			RTB1			RTB2			RTB3			LTB1			LTB2			LTB3			RCAL			RTOE			RMT5			LCAL			LTOE			LMT5			LACR			RACR			CLAV			C7			RUA1			RUA2			RUA3			RLEL			RMEL			LUA1			LUA2			LUA3			LLEL			LMEL			RFAsuperior			RFAradius			RFAulna			LFAsuperior			LFAradius			LFAulna			RTH2		
		X1	Y1	Z1	X2	Y2	Z2	X3	Y3	Z3	X4	Y4	Z4	X5	Y5	Z5	X6	Y6	Z6	X7	Y7	Z7	X8	Y8	Z8	X9	Y9	Z9	X10	Y10	Z10	X11	Y11	Z11	X12	Y12	Z12	X13	Y13	Z13	X14	Y14	Z14	X15	Y15	Z15	X16	Y16	Z16	X17	Y17	Z17	X18	Y18	Z18	X19	Y19	Z19	X20	Y20	Z20	X21	Y21	Z21	X22	Y22	Z22	X23	Y23	Z23	X24	Y24	Z24	X25	Y25	Z25	X26	Y26	Z26	X27	Y27	Z27	X28	Y28	Z28	X29	Y29	Z29	X30	Y30	Z30	X31	Y31	Z31	X32	Y32	Z32	X33	Y33	Z33	X34	Y34	Z34	X35	Y35	Z35	X36	Y36	Z36	X37	Y37	Z37	X38	Y38	Z38	X39	Y39	Z39	X40	Y40	Z40	X41	Y41	Z41	X42	Y42	Z42	

92	  0.766667	1087.163257	1029.088497	-437.114022	1067.788873	1053.744813	-207.346491	921.471574	1084.962445	-391.414531	909.694301	1088.437307	-293.880969	1059.316327	913.153754	-145.186273	1168.679727	699.664235	-188.110887	980.773682	869.760281	-501.826955	1016.213971	754.144910	-467.081793	899.710043	662.856770	-460.766905	1266.562058	484.757642	-242.627373	1201.340388	432.714125	-188.642251	1226.553321	307.596987	-252.892079	841.132241	425.362442	-396.023703	753.280856	368.319886	-444.069570	721.371188	273.561073	-376.974030	1092.282128	188.443617	-296.851286	1297.022178	136.950459	-299.851647	1265.273408	 90.455710	-206.172190	562.864353	253.659860	-368.330186	684.622268	 94.391386	-314.675764	653.774443	 68.156412	-418.952130	1107.303255	1526.094739	-507.830411	1020.439862	1520.614889	-158.630262	1123.635960	1472.886039	-289.708641	1026.920555	1556.297437	-349.641091	961.012785	1464.891548	-124.892009	934.804962	1381.094110	-135.875273	857.761644	1415.387324	-160.547784	778.385991	1330.635893	-147.395545	792.543936	1320.536966	-213.485029	1090.291399	1452.258223	-566.583432	1021.783217	1405.504663	-565.765029	1083.683733	1350.301234	-592.765392	1020.958382	1248.308586	-637.140467	964.549891	1246.423488	-586.156629	825.771818	1262.174400	-100.585990	896.202008	1094.240480	-68.848271	838.261094	1071.335123	-97.335834	1095.950015	1264.878825	-599.016240	1194.629398	1326.769505	-448.268205	1212.568216	1262.818773	-443.091681	1180.245858	801.853528	-173.665667	
93	  0.775000	1090.228583	1033.797369	-437.279165	1069.589674	1058.922198	-207.768145	924.406690	1090.002655	-392.744902	912.424506	1093.845877	-295.429050	1059.213270	916.635944	-146.540933	1163.473434	699.491631	-188.251884	982.251767	875.298916	-503.283365	1013.995626	759.609430	-467.483326	895.310060	671.442531	-459.505222	1269.879619	485.822317	-242.367978	1210.350107	429.471512	-187.471672	1243.975918	306.527046	-252.319662	833.434913	434.496552	-395.507141	745.586585	377.781121	-444.748266	712.199714	282.964042	-377.683813	1118.704568	178.351159	-294.443983	1326.221573	139.989511	-302.414397	1299.117810	 88.170879	-210.563734	556.721873	268.956292	-369.979384	667.688384	101.986678	-315.203782	635.747734	 76.961605	-418.629187	1108.469854	1531.180130	-506.033616	1020.430016	1525.009338	-158.193400	1123.702177	1477.259353	-288.488736	1027.321635	1560.443744	-348.703255	960.739574	1470.780144	-124.415021	933.877802	1386.984956	-134.999867	857.381418	1422.158439	-160.706200	777.368413	1337.117521	-148.020192	791.833945	1327.618697	-214.135774	1091.648911	1458.713420	-565.453185	1023.300623	1412.126454	-565.459328	1085.096757	1356.749632	-592.886980	1021.951646	1254.530493	-637.718761	965.181962	1252.927970	-587.725257	824.495016	1268.770889	-101.167423	895.525918	1100.816793	-69.177422	838.121146	1077.411854	-98.139857	1096.620875	1271.260827	-598.977689	1193.104333	1334.554827	-447.218998	1210.715369	1270.862316	-440.919682	1176.276531	801.600409	-173.299675	
94	  0.783333	1092.984743	1037.865755	-437.549588	1071.398950	1062.715430	-208.320989	927.173069	1094.340988	-393.834624	915.075310	1098.384587	-296.644578	1057.857482	917.563139	-148.089940	1158.567731	698.122850	-188.236730	983.774466	880.560128	-504.765262	1012.249243	764.696633	-468.831996	892.336255	678.845460	-457.998167	1272.040065	486.553852	-242.264859	1217.792363	426.516802	-186.938735	1259.364261	306.230820	-251.952018	827.592871	442.299198	-394.514531	739.472836	386.533462	-445.126253	703.479756	292.063890	-378.236756	1143.270409	169.864221	-292.862502	1352.718863	144.582366	-303.965901	1330.108435	 89.016070	-214.142492	550.589412	284.011513	-371.604580	650.940175	110.616167	-315.347539	617.888455	 86.505009	-417.832329	1109.365460	1535.350746	-504.375936	1020.521344	1528.351224	-157.771101	1123.803263	1480.717845	-287.295837	1027.644298	1563.883708	-347.591909	960.669289	1475.726037	-123.770082	933.183592	1391.946123	-133.956740	857.201712	1427.886145	-160.652917	776.583955	1342.602129	-148.398267	791.342154	1333.592061	-214.489591	1092.705216	1464.080006	-564.461175	1024.499032	1417.616068	-565.331165	1086.194884	1362.074157	-593.082122	1022.354764	1259.944351	-638.359628	965.211269	1258.639304	-589.216015	823.468304	1274.334003	-101.518627	895.245277	1106.348528	-69.587082	838.238001	1082.744172	-98.827831	1096.816238	1276.512762	-599.150970	1191.480726	1340.552305	-446.213215	1208.630824	1276.977515	-439.165397	1172.616282	800.149587	-172.775422	
95	  0.791667	1095.388841	1041.161378	-437.782425	1073.220900	1065.098370	-208.894549	929.752468	1097.941820	-394.636999	917.514156	1101.951626	-297.398141	1055.401924	916.392870	-149.652621	1154.041130	695.755580	-188.131452	985.232806	885.355235	-506.002211	1011.129512	769.078217	-470.827191	891.247568	684.393044	-456.659202	1273.166623	486.918162	-242.316378	1223.298679	423.736704	-187.082236	1272.382407	306.455717	-251.778551	823.564128	448.125626	-393.469345	734.619905	394.303503	-445.284835	695.075882	300.696629	-378.727681	1165.338840	162.998336	-292.320613	1375.978827	150.288628	-304.364194	1357.233285	 92.510824	-216.443615	544.173716	298.933314	-373.370627	634.098904	120.354676	-315.073249	599.912844	 96.806521	-416.625862	1109.950600	1538.677381	-502.886813	1020.720007	1530.653324	-157.232413	1123.972556	1483.319352	-286.093634	1027.900688	1566.647154	-346.244057	960.777432	1479.662059	-122.869959	932.726751	1395.871750	-132.819825	857.204788	1432.464997	-160.378236	776.031641	1347.031705	-148.510011	791.036347	1338.403229	-214.537369	1093.453137	1468.233880	-563.565487	1025.343752	1422.002913	-565.295278	1086.899270	1366.282690	-593.253764	1022.143553	1264.585191	-639.004582	964.632781	1263.621029	-590.518073	822.702892	1278.811483	-101.650471	895.376515	1110.801324	-69.991247	838.543584	1087.361270	-99.383257	1096.521110	1280.615104	-599.485465	1189.812502	1344.692977	-445.368905	1206.421253	1281.025174	-437.848593	1169.328333	797.689150	-172.168702	
96	  0.800000	1097.419987	1043.680356	-437.859634	1074.991695	1066.193788	-209.355262	932.090252	1100.828048	-395.142560	919.602086	1104.439010	-297.653689	1052.302874	913.868442	-151.061184	1149.857286	692.676191	-188.102004	986.575414	889.333529	-506.695670	1010.973064	772.392427	-472.786957	892.376993	687.588374	-455.758257	1273.486413	486.939915	-242.472184	1226.826344	421.205623	-187.633629	1282.873381	307.014103	-251.701740	821.198460	451.727724	-392.696464	730.773269	400.994361	-445.305044	686.992678	308.905573	-379.100782	1184.289008	157.850840	-292.746203	1395.519644	156.407386	-303.820006	1379.573076	 97.416470	-217.283337	537.472926	313.942498	-375.418634	617.216569	131.377284	-314.423239	582.097177	108.117613	-415.251060	1110.174939	1541.217703	-501.555632	1021.068690	1532.018354	-156.360538	1124.226934	1485.143778	-284.862975	1028.103121	1568.723361	-344.642282	961.053656	1482.499024	-121.631819	932.510378	1398.684616	-131.630949	857.387503	1435.832069	-159.845503	775.720720	1350.339484	-148.328785	790.901141	1342.033559	-214.270226	1093.858859	1471.182034	-562.746936	1025.768785	1425.386105	-565.234567	1087.100788	1369.467769	-593.320456	1021.306662	1268.498156	-639.599328	963.483221	1267.924961	-591.577915	822.237135	1282.142379	-101.568149	895.934000	1114.127156	-70.368860	839.125134	1091.035462	-99.828711	1095.723890	1283.572704	-599.899575	1188.138319	1346.918474	-444.872679	1204.158789	1282.927166	-436.986969	1166.371202	794.507020	-171.642156	
97	  0.808333	1099.083515	1045.523584	-437.729613	1076.580059	1066.211936	-209.627845	934.090375	1103.047905	-395.411528	921.218744	1105.792773	-297.504870	1049.129162	910.750180	-152.164189	1145.969472	689.198707	-188.364512	987.919907	892.076394	-506.684360	1012.246966	774.338022	-473.929559	895.776695	688.275225	-455.318754	1273.253511	486.707557	-242.675628	1228.656901	419.050758	-188.271238	1290.877989	307.735905	-251.655720	820.269718	453.365804	-392.203814	727.876357	406.735932	-445.217805	679.397574	316.920098	-379.227510	1199.628243	154.460797	-293.887920	1411.013056	161.960888	-302.822953	1396.538323	102.159863	-216.799102	530.809712	329.243137	-377.782558	600.684903	143.776799	-313.521175	565.091458	120.657139	-413.984735	1110.010190	1542.991763	-500.339540	1021.612989	1532.566132	-155.000496	1124.558184	1486.265147	-283.611997	1028.267106	1570.073086	-342.825930	961.504980	1484.143008	-120.008620	932.550463	1400.329912	-130.398951	857.762608	1437.962171	-159.000465	775.678910	1352.468774	-147.823902	790.966717	1344.473378	-213.689092	1093.857981	1473.055935	-561.986619	1025.679880	1427.891948	-565.036511	1086.697392	1371.764229	-593.258436	1019.840076	1271.720491	-640.089974	961.797183	1271.567368	-592.371994	822.129258	1284.263121	-101.262149	896.918137	1116.258739	-70.775471	840.115355	1093.402357	-100.185113	1094.413274	1285.413413	-600.303889	1186.485551	1347.178947	-444.761053	1201.873310	1282.685854	-436.570255	1163.699946	790.939081	-171.394469	
98	  0.816667	1100.420102	1046.824475	-437.419607	1077.848766	1065.403362	-209.707417	935.639986	1104.582729	-395.567156	922.292013	1106.051259	-297.146607	1046.367081	907.607757	-152.848484	1142.431908	685.625016	-189.065250	989.598498	893.198209	-505.999517	1015.330420	774.782285	-473.698161	901.176438	686.678098	-455.157869	1272.661605	486.292274	-242.936741	1229.254828	417.256593	-188.886887	1296.569010	308.368042	-251.709399	820.546452	453.648539	-391.713498	726.056507	411.822021	-444.991188	672.580264	325.011708	-379.055441	1211.072983	152.622165	-295.521008	1422.362793	165.849914	-301.868431	1407.986260	105.441971	-215.360812	524.756981	344.933241	-380.362250	585.060950	157.435685	-312.562721	549.480194	134.422001	-413.003674	1109.482875	1543.990445	-499.185251	1022.369950	1532.366770	-153.172461	1124.943247	1486.723539	-282.376784	1028.420321	1570.664522	-340.877317	962.154530	1484.544966	-117.990209	932.881726	1400.770576	-129.119271	858.349876	1438.853146	-157.791386	775.946057	1353.387594	-146.962847	791.287536	1345.705844	-212.786331	1093.364221	1474.044702	-561.212301	1024.983843	1429.635275	-564.603577	1085.628918	1373.299180	-593.101306	1017.738447	1274.274921	-640.417658	959.596900	1274.543719	-592.874243	822.445870	1285.126011	-100.711251	898.324013	1117.134056	-71.270710	841.566352	1094.198310	-100.443818	1092.568351	1286.184331	-600.618678	1184.892287	1345.442314	-444.820601	1199.549132	1280.375324	-436.547910	1161.375525	787.313644	-171.559228	
